<?xml version="1.0" encoding="UTF-8"?>
<!DOCTYPE svg PUBLIC "-//W3C//DTD SVG 1.1//EN" "http://www.w3.org/Graphics/SVG/1.1/DTD/svg11.dtd">
<svg xmlns="http://www.w3.org/2000/svg" version="1.1" width="168px" height="168px"   style="shape-rendering:geometricPrecision; text-rendering:geometricPrecision; image-rendering:optimizeQuality; fill-rule:evenodd; clip-rule:evenodd" xmlns:xlink="http://www.w3.org/1999/xlink">
<g><path  style="opacity:0.987" fill="#ff9e0c" fill="#BB9457" d="M 72.5,-0.5 C 79.8333,-0.5 87.1667,-0.5 94.5,-0.5C 134.945,10.1509 153.445,36.4842 150,78.5C 143.295,101.507 131.962,121.841 116,139.5C 106.574,149.431 96.7402,158.764 86.5,167.5C 84.5,167.5 82.5,167.5 80.5,167.5C 57.8175,148.987 39.3175,126.987 25,101.5C 9.48122,69.1118 14.3146,40.2784 39.5,15C 49.2972,7.09939 60.2972,1.93272 72.5,-0.5 Z M 76.5,35.5 C 96.5302,33.7205 109.364,42.3872 115,61.5C 116.005,86.8284 103.838,99.3284 78.5,99C 59.1737,93.9954 50.3403,81.4954 52,61.5C 55.2411,48.0947 63.4078,39.4281 76.5,35.5 Z"/></g>
</svg>
